<svg width="16" height="16" viewBox="0 0 16 16" fill="none" xmlns="http://www.w3.org/2000/svg">
<path d="M14 11V12.5C14 12.6326 13.9473 12.7598 13.8536 12.8536C13.7598 12.9473 13.6326 13 13.5 13H12C11.8674 13 11.7402 12.9473 11.6464 12.8536C11.5527 12.7598 11.5 12.6326 11.5 12.5V11" stroke="#989898" stroke-width="1.5" stroke-linecap="round" stroke-linejoin="round"/>
<path d="M4.5 11V12.5C4.5 12.6326 4.44732 12.7598 4.35355 12.8536C4.25979 12.9473 4.13261 13 4 13H2.5C2.36739 13 2.24021 12.9473 2.14645 12.8536C2.05268 12.7598 2 12.6326 2 12.5V11" stroke="#989898" stroke-width="1.5" stroke-linecap="round" stroke-linejoin="round"/>
<path d="M14 7L12.1438 3.75C12.0998 3.67388 12.0366 3.61069 11.9604 3.5668C11.8843 3.52291 11.7979 3.49987 11.71 3.5H4.29C4.20211 3.49987 4.11573 3.52291 4.03958 3.5668C3.96343 3.61069 3.9002 3.67388 3.85625 3.75L2 7V11H14V7Z" stroke="#989898" stroke-width="1.5" stroke-linecap="round" stroke-linejoin="round"/>
</svg>
