<svg width="10" height="15" viewBox="0 0 10 15" fill="none" xmlns="http://www.w3.org/2000/svg">
<path d="M4.25 7.25049H0.75C0.551088 7.25049 0.360322 7.32951 0.21967 7.47016C0.0790175 7.61081 0 7.80158 0 8.00049V8.75049H5V8.00049C5 7.80158 4.92098 7.61081 4.78033 7.47016C4.63968 7.32951 4.44891 7.25049 4.25 7.25049Z" fill="#E0A684"/>
<path d="M9.40075 0.577083L8.25013 7.25052V8.75052H5.00013V8.00052C5.00008 7.80162 4.92104 7.61089 4.7804 7.47024C4.63976 7.3296 4.44902 7.25057 4.25012 7.25052H7.25013L8.4295 0.409583C8.44043 0.345752 8.46384 0.284703 8.49838 0.229925C8.53293 0.175148 8.57793 0.127716 8.63082 0.0903427C8.68371 0.0529692 8.74345 0.0263868 8.80661 0.0121152C8.86978 -0.00215642 8.93515 -0.00383725 8.99896 0.00716877C9.06278 0.0181748 9.12381 0.0416518 9.17855 0.0762576C9.23328 0.110863 9.28067 0.155919 9.31798 0.208849C9.3553 0.261778 9.38181 0.321544 9.39601 0.384728C9.41022 0.447913 9.41182 0.513277 9.40075 0.577083Z" fill="#AD693D"/>
<path d="M8.91512 0.000488288C8.79894 0.000468497 8.68649 0.0415081 8.59763 0.116358C8.50877 0.191208 8.44922 0.295053 8.4295 0.409551L7.25013 7.25049H3.00012L4.17856 0.415488C4.19858 0.299369 4.25898 0.194054 4.34909 0.118125C4.4392 0.0421958 4.55323 0.000533299 4.67106 0.000488288H8.91512Z" fill="#DC9265"/>
<path d="M0.75 14.5005H0V8.75049H1.5L0.75 14.5005Z" fill="#BC8D5D"/>
<path d="M5 14.5005H4.25V8.75049H5.75L5 14.5005Z" fill="#BC8D5D"/>
<path d="M7.5 14.5005H8.25V8.75049H6.75L7.5 14.5005Z" fill="#BC8D5D"/>
</svg>
