<svg width="25" height="25" viewBox="0 0 25 25" fill="none" xmlns="http://www.w3.org/2000/svg">
<path d="M12.5 16.4062V21.875" stroke="#6B7280" stroke-width="2" stroke-linecap="round" stroke-linejoin="round"/>
<path d="M4.37988 7.8125C3.34803 9.59973 2.93472 11.6775 3.20405 13.7235C3.47339 15.7696 4.41032 17.6696 5.86954 19.1289C7.32876 20.5882 9.22872 21.5253 11.2748 21.7947C13.3208 22.0642 15.3986 21.651 17.1859 20.6193C18.9732 19.5875 20.3701 17.9949 21.16 16.0883C21.9499 14.1817 22.0886 12.0678 21.5546 10.0744C21.0207 8.08095 19.8439 6.31939 18.2068 5.06291C16.5697 3.80643 14.5637 3.12525 12.5 3.125V8.59375C13.3599 8.59394 14.1956 8.87785 14.8777 9.40143C15.5598 9.92502 16.05 10.659 16.2724 11.4896C16.4948 12.3202 16.437 13.201 16.1078 13.9954C15.7787 14.7897 15.1966 15.4533 14.4519 15.8831C13.7072 16.313 12.8414 16.4851 11.9889 16.3728C11.1364 16.2605 10.3448 15.87 9.73683 15.262C9.12885 14.6539 8.73849 13.8623 8.62628 13.0098C8.51406 12.1573 8.68628 11.2915 9.11621 10.5469L4.37988 7.8125Z" stroke="#6B7280" stroke-width="2" stroke-linecap="round" stroke-linejoin="round"/>
<path d="M8.72559 13.5117L3.44238 14.9268" stroke="#6B7280" stroke-width="2" stroke-linecap="round" stroke-linejoin="round"/>
</svg>
