<svg width="20" height="20" viewBox="0 0 20 20" fill="none" xmlns="http://www.w3.org/2000/svg">
<g opacity="0.4">
<path d="M16.875 3.75H5.625C5.27982 3.75 5 4.02982 5 4.375V13.125C5 13.4702 5.27982 13.75 5.625 13.75H16.875C17.2202 13.75 17.5 13.4702 17.5 13.125V4.375C17.5 4.02982 17.2202 3.75 16.875 3.75Z" stroke="#303030" stroke-width="1.5" stroke-linecap="round" stroke-linejoin="round"/>
<path d="M13.4375 7.5C13.9553 7.5 14.375 7.08027 14.375 6.5625C14.375 6.04473 13.9553 5.625 13.4375 5.625C12.9197 5.625 12.5 6.04473 12.5 6.5625C12.5 7.08027 12.9197 7.5 13.4375 7.5Z" fill="#303030"/>
<path d="M5 10.0539L7.99531 7.05782C8.05336 6.99971 8.12229 6.95361 8.19816 6.92215C8.27404 6.8907 8.35537 6.87451 8.4375 6.87451C8.51963 6.87451 8.60096 6.8907 8.67684 6.92215C8.75271 6.95361 8.82164 6.99971 8.87969 7.05782L12.7586 10.9375L14.7656 8.93282C14.8828 8.81569 15.0417 8.7499 15.2074 8.7499C15.3731 8.7499 15.532 8.81569 15.6492 8.93282L17.5 10.7859" stroke="#303030" stroke-width="1.5" stroke-linecap="round" stroke-linejoin="round"/>
<path d="M15 13.75V15.625C15 15.7908 14.9342 15.9497 14.8169 16.0669C14.6997 16.1842 14.5408 16.25 14.375 16.25H3.125C2.95924 16.25 2.80027 16.1842 2.68306 16.0669C2.56585 15.9497 2.5 15.7908 2.5 15.625V6.875C2.5 6.70924 2.56585 6.55027 2.68306 6.43306C2.80027 6.31585 2.95924 6.25 3.125 6.25H5" stroke="#303030" stroke-width="1.5" stroke-linecap="round" stroke-linejoin="round"/>
</g>
</svg>
