<svg width="16" height="16" viewBox="0 0 16 16" fill="none" xmlns="http://www.w3.org/2000/svg">
<path d="M8 14C11.3137 14 14 11.3137 14 8C14 4.68629 11.3137 2 8 2C4.68629 2 2 4.68629 2 8C2 11.3137 4.68629 14 8 14Z" stroke="#8F8F8F" stroke-width="1.5" stroke-linecap="round" stroke-linejoin="round"/>
<path d="M7.5 7.5C7.63261 7.5 7.75979 7.55268 7.85355 7.64645C7.94732 7.74021 8 7.86739 8 8V10.5C8 10.6326 8.05268 10.7598 8.14645 10.8536C8.24021 10.9473 8.36739 11 8.5 11" stroke="#8F8F8F" stroke-width="1.5" stroke-linecap="round" stroke-linejoin="round"/>
<mask id="path-3-inside-1_358_4951" fill="white">
<path d="M7.75 6C8.16421 6 8.5 5.66421 8.5 5.25C8.5 4.83579 8.16421 4.5 7.75 4.5C7.33579 4.5 7 4.83579 7 5.25C7 5.66421 7.33579 6 7.75 6Z"/>
</mask>
<path d="M7.75 6C8.16421 6 8.5 5.66421 8.5 5.25C8.5 4.83579 8.16421 4.5 7.75 4.5C7.33579 4.5 7 4.83579 7 5.25C7 5.66421 7.33579 6 7.75 6Z" fill="#8F8F8F"/>
<path d="M8.5 5.25H7C7 4.83579 7.33579 4.5 7.75 4.5V6V7.5C8.99264 7.5 10 6.49264 10 5.25H8.5ZM7.75 6V4.5C8.16421 4.5 8.5 4.83579 8.5 5.25H7H5.5C5.5 6.49264 6.50736 7.5 7.75 7.5V6ZM7 5.25H8.5C8.5 5.66421 8.16421 6 7.75 6V4.5V3C6.50736 3 5.5 4.00736 5.5 5.25H7ZM7.75 4.5V6C7.33579 6 7 5.66421 7 5.25H8.5H10C10 4.00736 8.99264 3 7.75 3V4.5Z" fill="#8F8F8F" mask="url(#path-3-inside-1_358_4951)"/>
</svg>
