<svg width="16" height="16" viewBox="0 0 16 16" fill="none" xmlns="http://www.w3.org/2000/svg">
<path d="M6 6L10 10" stroke="#989898" stroke-width="1.5" stroke-linecap="round" stroke-linejoin="round"/>
<path d="M7 11.243L8.87875 13.118C9.44291 13.6731 10.2035 13.9827 10.9949 13.9795C11.7864 13.9762 12.5444 13.6604 13.104 13.1008C13.6637 12.5412 13.9795 11.7831 13.9827 10.9917C13.9859 10.2003 13.6763 9.43967 13.1213 8.87552L11.2425 6.99989" stroke="#989898" stroke-width="1.5" stroke-linecap="round" stroke-linejoin="round"/>
<path d="M4.75698 9L2.88198 7.12125C2.32694 6.55709 2.01731 5.79647 2.02053 5.00506C2.02376 4.21365 2.33957 3.45557 2.89919 2.89596C3.4588 2.33634 4.21688 2.02052 5.00829 2.0173C5.7997 2.01408 6.56033 2.32371 7.12448 2.87875L9.00011 4.7575" stroke="#989898" stroke-width="1.5" stroke-linecap="round" stroke-linejoin="round"/>
</svg>
