<svg width="25" height="25" viewBox="0 0 25 25" fill="none" xmlns="http://www.w3.org/2000/svg">
<path d="M7.80566 20.6162C9.77493 21.756 12.0915 22.1406 14.3234 21.6985C16.5554 21.2564 18.5503 20.0177 19.9364 18.2133C21.3225 16.4089 22.005 14.162 21.8568 11.8915C21.7086 9.62105 20.7397 7.48197 19.1309 5.87308C17.522 4.2642 15.3829 3.29533 13.1124 3.14712C10.8419 2.99891 8.59506 3.68146 6.79067 5.06753C4.98628 6.4536 3.74755 8.44858 3.30542 10.6805C2.8633 12.9125 3.24796 15.229 4.38769 17.1983L3.16601 20.8457C3.12011 20.9834 3.11345 21.1311 3.14678 21.2723C3.1801 21.4136 3.25211 21.5427 3.35471 21.6453C3.45732 21.7479 3.58647 21.8199 3.7277 21.8533C3.86892 21.8866 4.01664 21.8799 4.1543 21.834L7.80566 20.6162Z" stroke="#6B7280" stroke-width="2" stroke-linecap="round" stroke-linejoin="round"/>
</svg>
