<svg width="24" height="24" viewBox="0 0 24 24" fill="none" xmlns="http://www.w3.org/2000/svg">
<g clip-path="url(#clip0_365_5688)">
<path d="M4.20007 2.3999H0.600073C0.268726 2.3999 0 2.66863 0 2.99998V6.59998C0 6.93132 0.268726 7.20005 0.600073 7.20005C0.931421 7.20005 1.19993 6.93132 1.19993 6.59998V3.60005H4.20007C4.53142 3.60005 4.79993 3.33132 4.79993 2.99998C4.79993 2.66863 4.53142 2.3999 4.20007 2.3999Z" fill="#303030"/>
<path d="M4.20007 20.3998H1.19993V17.3999C1.19993 17.0685 0.931421 16.7998 0.600073 16.7998C0.268726 16.7998 0 17.0685 0 17.3999V20.9999C0 21.3312 0.268726 21.6 0.600073 21.6H4.20007C4.53142 21.6 4.79993 21.3312 4.79993 20.9999C4.79993 20.6685 4.53142 20.3998 4.20007 20.3998Z" fill="#303030"/>
<path d="M23.4 2.3999H19.8C19.4687 2.3999 19.2 2.66863 19.2 2.99998C19.2 3.33132 19.4687 3.60005 19.8 3.60005H22.8V6.59998C22.8 6.93132 23.0687 7.20005 23.4 7.20005C23.7314 7.20005 24.0001 6.93132 24.0001 6.59998V2.99998C24.0001 2.66863 23.7314 2.3999 23.4 2.3999Z" fill="#303030"/>
<path d="M23.4 16.7998C23.0687 16.7998 22.8 17.0685 22.8 17.3999V20.3998H19.8C19.4687 20.3998 19.2 20.6685 19.2 20.9999C19.2 21.3312 19.4687 21.6 19.8 21.6H23.4C23.7314 21.6 24.0001 21.3312 24.0001 20.9999V17.3999C24.0001 17.0685 23.7314 16.7998 23.4 16.7998Z" fill="#303030"/>
<path d="M4.20017 6C3.86882 6 3.6001 6.26873 3.6001 6.60007V17.4001C3.6001 17.7314 3.86882 18.0001 4.20017 18.0001C4.53152 18.0001 4.80002 17.7314 4.80002 17.4001V6.60007C4.80002 6.26873 4.53152 6 4.20017 6Z" fill="#303030"/>
<path d="M6.59985 6H7.8C8.13135 6 8.39985 6.26873 8.39985 6.60007V17.4001C8.39985 17.7314 8.13135 18.0001 7.8 18.0001H6.59985C6.26851 18.0001 6 17.7314 6 17.4001V6.60007C6 6.26873 6.26851 6 6.59985 6Z" fill="#303030"/>
<path d="M10.2 6C9.8686 6 9.6001 6.26873 9.6001 6.60007V17.4001C9.6001 17.7314 9.8686 18.0001 10.2 18.0001C10.5313 18.0001 10.8 17.7314 10.8 17.4001V6.60007C10.8 6.26873 10.5313 6 10.2 6Z" fill="#303030"/>
<path d="M12.6001 6H13.8C14.1313 6 14.4001 6.26873 14.4001 6.60007V17.4001C14.4001 17.7314 14.1313 18.0001 13.8 18.0001H12.6001C12.2687 18.0001 12 17.7314 12 17.4001V6.60007C12 6.26873 12.2687 6 12.6001 6Z" fill="#303030"/>
<path d="M16.1999 6C15.8686 6 15.5999 6.26873 15.5999 6.60007V17.4001C15.5999 17.7314 15.8686 18.0001 16.1999 18.0001C16.5313 18.0001 16.8 17.7314 16.8 17.4001V6.60007C16.8 6.26873 16.5313 6 16.1999 6Z" fill="#303030"/>
<path d="M18.6001 6H19.8C20.1313 6 20.4001 6.26873 20.4001 6.60007V17.4001C20.4001 17.7314 20.1313 18.0001 19.8 18.0001H18.6001C18.2687 18.0001 18 17.7314 18 17.4001V6.60007C18 6.26873 18.2687 6 18.6001 6Z" fill="#303030"/>
</g>
<defs>
<clipPath id="clip0_365_5688">
<rect width="24" height="24" fill="white"/>
</clipPath>
</defs>
</svg>
