<svg width="25" height="25" viewBox="0 0 25 25" fill="none" xmlns="http://www.w3.org/2000/svg">
<path d="M10.1563 12.3966C9.53172 11.2664 9.27259 9.97045 9.41449 8.68697C9.55639 7.40349 10.0924 6.19547 10.9487 5.22897C11.8051 4.26248 12.9397 3.58495 14.1968 3.28953C15.4539 2.99412 16.7716 3.09532 17.9688 3.57922L14.0625 7.81262L14.6152 10.3849L17.1875 10.9376L21.4209 7.03137C21.9048 8.22857 22.006 9.54627 21.7106 10.8033C21.4152 12.0604 20.7376 13.1951 19.7711 14.0514C18.8047 14.9078 17.5966 15.4437 16.3132 15.5856C15.0297 15.7275 13.7337 15.4684 12.6035 14.8439L7.12891 21.1915C6.68861 21.6318 6.09144 21.8792 5.46876 21.8792C4.84608 21.8792 4.2489 21.6318 3.8086 21.1915C3.3683 20.7512 3.12094 20.154 3.12094 19.5314C3.12094 18.9087 3.3683 18.3115 3.8086 17.8712L10.1563 12.3966Z" stroke="#6B7280" stroke-width="2" stroke-linecap="round" stroke-linejoin="round"/>
</svg>
